<svg xmlns="http://www.w3.org/2000/svg" width="1120" height="420" viewBox="0 0 1120 420">
<rect width="1120" height="420" fill="#f8f6f1"/>
<text x="180" y="28" font-family="Georgia, serif" font-size="24" fill="#182126">Average FPS</text>
<text x="180" y="48" font-family="Menlo, Consolas, monospace" font-size="12" fill="#51606b">Mean FPS by lane</text>
<text x="168" y="86.0" text-anchor="end" font-family="Menlo, Consolas, monospace" font-size="13" fill="#182126">static_baseline</text>
<rect x="180" y="50" width="900" height="50" fill="#e5ddd0" rx="6" ry="6"/>
<rect x="180" y="50" width="900.0" height="50" fill="#c96b2c" rx="6" ry="6"/>
<text x="1088.0" y="86.0" font-family="Menlo, Consolas, monospace" font-size="12" fill="#182126">455.08 fps</text>
<text x="168" y="148.0" text-anchor="end" font-family="Menlo, Consolas, monospace" font-size="13" fill="#182126">dense_resident_2m</text>
<rect x="180" y="112" width="900" height="50" fill="#e5ddd0" rx="6" ry="6"/>
<rect x="180" y="112" width="24.4" height="50" fill="#c96b2c" rx="6" ry="6"/>
<text x="212.4" y="148.0" font-family="Menlo, Consolas, monospace" font-size="12" fill="#182126">12.34 fps</text>
<text x="168" y="210.0" text-anchor="end" font-family="Menlo, Consolas, monospace" font-size="13" fill="#182126">city_flyover</text>
<rect x="180" y="174" width="900" height="50" fill="#e5ddd0" rx="6" ry="6"/>
<rect x="180" y="174" width="254.4" height="50" fill="#c96b2c" rx="6" ry="6"/>
<text x="442.4" y="210.0" font-family="Menlo, Consolas, monospace" font-size="12" fill="#182126">128.66 fps</text>
<text x="168" y="272.0" text-anchor="end" font-family="Menlo, Consolas, monospace" font-size="13" fill="#182126">instance_storm</text>
<rect x="180" y="236" width="900" height="50" fill="#e5ddd0" rx="6" ry="6"/>
<rect x="180" y="236" width="62.3" height="50" fill="#c96b2c" rx="6" ry="6"/>
<text x="250.3" y="272.0" font-family="Menlo, Consolas, monospace" font-size="12" fill="#182126">31.49 fps</text>
<text x="168" y="334.0" text-anchor="end" font-family="Menlo, Consolas, monospace" font-size="13" fill="#182126">lighting_stress</text>
<rect x="180" y="298" width="900" height="50" fill="#e5ddd0" rx="6" ry="6"/>
<rect x="180" y="298" width="143.5" height="50" fill="#c96b2c" rx="6" ry="6"/>
<text x="331.5" y="334.0" font-family="Menlo, Consolas, monospace" font-size="12" fill="#182126">72.57 fps</text>
</svg>